<svg xmlns="http://www.w3.org/2000/svg" viewBox="0 0 100 100" width="100%" height="100%">
  <g stroke="#1E293B" stroke-width="4" stroke-linejoin="round" stroke-linecap="round">
    <!-- Cap Crown -->
    <path d="M20,60 C20,25 80,25 80,60" fill="#F8FAFC" />
    <!-- Cap Brim -->
    <path d="M10,60 Q40,55 90,65" fill="none" />
    <!-- Top Button -->
    <circle cx="50" cy="27" r="3" fill="#1E293B" />
    <!-- Panel Lines -->
    <path d="M50,27 C50,40 40,60 40,60" fill="none" />
    <path d="M50,27 C50,40 60,60 60,60" fill="none" />
    
    <!-- Sun and Stars Motif -->
    <g fill="#F59E0B" stroke="none">
      <circle cx="50" cy="45" r="4" />
      <polygon points="50,38 52,42 56,41 53,44 55,48 50,46 45,48 47,44 44,41 48,42" />
      <!-- Tiny Stars -->
      <circle cx="42" cy="40" r="1.5" />
      <circle cx="58" cy="40" r="1.5" />
      <circle cx="50" cy="53" r="1.5" />
    </g>
  </g>
</svg>
